<svg version="1.0" xmlns="http://www.w3.org/2000/svg"
  width="40px" height="40px" viewBox="0 0 1400 1400"
  preserveAspectRatio="xMidYMid meet">
  <style>
    path { fill: #000; }
    @media (prefers-color-scheme: dark) {
    path { fill: #FFF; }
    }
</style>
  <g transform="translate(0.000000,1400) scale(0.100000,-0.100000)"
    fill="currentColor" stroke="none">
    <path
      d="M1620 9765 l0 -1145 4131 0 4131 0 -5 -1002 c-4 -956 -5 -1008 -24
-1118 -53 -294 -134 -502 -288 -735 -250 -378 -640 -655 -1075 -765 -229 -58
63 -53 -3552 -57 l-3318 -3 0 -1145 0 -1145 3743 3 c3473 3 3751 4 3867 20
333 46 542 94 817 188 409 140 786 345 1118 608 553 438 956 986 1209 1645 99
257 162 498 214 826 l26 165 3 2403 3 2402 -5500 0 -5500 0 0 -1145z" />
  </g>
</svg>